<?xml version="1.0" encoding="UTF-8"?>
<svg width="100pt" height="100pt" version="1.1" viewBox="0 0 100 100" xmlns="http://www.w3.org/2000/svg">
 <path d="m50-0.0039062c-27.57 0-50 22.434-50 50.004s22.43 50.004 50 50.004 50-22.434 50-50.004-22.43-50.004-50-50.004zm0 94.234c-24.391 0-44.23-19.844-44.23-44.234 0-24.387 19.84-44.227 44.23-44.227s44.23 19.84 44.23 44.23-19.84 44.23-44.23 44.23z" fill="#032a8c"/>
 <path d="m59.371 46.406-26.289-0.003906 11.195-11.195c1.1328-1.1289 1.1328-2.9648 0-4.0938-1.1328-1.1328-2.9648-1.1328-4.0938 0l-16.141 16.141c-0.13672 0.13672-0.25391 0.28516-0.35938 0.44141-0.042969 0.0625-0.074219 0.13672-0.10938 0.19922-0.054688 0.097657-0.11328 0.19141-0.15625 0.29688-0.035157 0.085938-0.054688 0.17188-0.082031 0.25781-0.027344 0.09375-0.0625 0.18359-0.085938 0.28125-0.03125 0.14844-0.039062 0.29688-0.046875 0.44531 0 0.039063-0.011719 0.078125-0.011719 0.11719 0 0.046875 0.011719 0.085937 0.011719 0.13281 0.007813 0.14453 0.015625 0.28906 0.046875 0.43359 0.019531 0.10547 0.058594 0.19922 0.089844 0.30078 0.023437 0.082032 0.042968 0.16406 0.074218 0.24219 0.046876 0.11328 0.10938 0.21875 0.16797 0.32031 0.03125 0.058594 0.058594 0.12109 0.097657 0.17969 0.10937 0.16016 0.23047 0.3125 0.36719 0.44531l16.137 16.137c0.56641 0.5625 1.3047 0.84766 2.0469 0.84766 0.74219 0 1.4805-0.28125 2.0508-0.84766 1.1289-1.1328 1.1289-2.9648 0-4.0977l-11.199-11.191h26.289c6.4219 0 11.645 5.2227 11.645 11.645 0 1.6016 1.2969 2.8945 2.8945 2.8945 1.6016 0 2.8945-1.2969 2.8945-2.8945 0.003906-9.6133-7.8203-17.438-17.434-17.434z" fill="#032a8c"/>
</svg>
