<?xml version="1.0" encoding="UTF-8"?>
<!DOCTYPE svg PUBLIC "-//W3C//DTD SVG 1.1//EN" "http://www.w3.org/Graphics/SVG/1.1/DTD/svg11.dtd">
<!-- Creator: CorelDRAW -->
<svg xmlns="http://www.w3.org/2000/svg" xml:space="preserve" width="174.169mm" height="174.168mm" version="1.1" style="shape-rendering:geometricPrecision; text-rendering:geometricPrecision; image-rendering:optimizeQuality; fill-rule:evenodd; clip-rule:evenodd"
viewBox="0 0 17416.86 17416.84"
 xmlns:xlink="http://www.w3.org/1999/xlink"
 xmlns:xodm="http://www.corel.com/coreldraw/odm/2003">
 <defs>
  <style type="text/css">
   <![CDATA[
    .fil1 {fill:#4053A0}
    .fil0 {fill:#4053A0;fill-rule:nonzero}
   ]]>
  </style>
 </defs>
 <g id="Слой_x0020_1">
  <metadata id="CorelCorpID_0Corel-Layer"/>
  <g id="_1940825397264">
   <g>
    <path class="fil0" d="M8708.44 14.51c2400.73,0 4574.23,973.13 6147.51,2546.41 1573.27,1573.27 2546.4,3746.77 2546.4,6147.51 0,2400.73 -973.13,4574.23 -2546.4,6147.51 -1573.28,1573.27 -3746.78,2546.4 -6147.51,2546.4 -2400.74,0 -4574.24,-973.13 -6147.51,-2546.4 -1573.28,-1573.28 -2546.41,-3746.78 -2546.41,-6147.51 0,-2400.74 973.13,-4574.24 2546.41,-6147.51 1573.27,-1573.28 3746.77,-2546.41 6147.51,-2546.41zm6072.44 2621.47c-1554.05,-1554.05 -3700.99,-2515.27 -6072.44,-2515.27 -2371.45,0 -4518.4,961.22 -6072.45,2515.27 -1554.06,1554.06 -2515.27,3701 -2515.27,6072.45 0,2371.45 961.21,4518.39 2515.27,6072.45 1554.05,1554.05 3701,2515.27 6072.45,2515.27 2371.45,0 4518.39,-961.22 6072.44,-2515.27 1554.06,-1554.06 2515.28,-3701 2515.28,-6072.45 0,-2371.45 -961.22,-4518.39 -2515.28,-6072.45zm-6072.44 -854.49c1912.8,0 3644.54,775.34 4898.07,2028.87 1253.53,1253.52 2028.86,2985.26 2028.86,4898.07 0,1912.77 -775.35,3644.54 -2028.86,4898.07 -1253.53,1253.53 -2985.27,2028.86 -4898.07,2028.86 -1912.81,0 -3644.55,-775.33 -4898.08,-2028.86 -1253.51,-1253.53 -2028.86,-2985.3 -2028.86,-4898.07 0,-1912.81 775.34,-3644.55 2028.86,-4898.07 1253.53,-1253.53 2985.27,-2028.87 4898.08,-2028.87zm4823.01 2103.93c-1234.28,-1234.28 -2939.49,-1997.73 -4823.01,-1997.73 -1883.52,0 -3588.74,763.45 -4823.01,1997.73 -1234.28,1234.27 -1997.73,2939.49 -1997.73,4823.01 0,1883.5 763.43,3588.7 1997.73,4823.01 1234.27,1234.28 2939.49,1997.73 4823.01,1997.73 1883.52,0 3588.73,-763.45 4823.01,-1997.73 1234.29,-1234.31 1997.73,-2939.51 1997.73,-4823.01 0,-1883.52 -763.46,-3588.74 -1997.73,-4823.01z"/>
    <path class="fil0" d="M8708.43 0c1179.42,0 2304.23,234.54 3330.21,659.53 1065.73,441.44 2024.76,1088.32 2827.57,1891.12 1575.88,1575.88 2550.66,3753.04 2550.66,6157.78 0,1179.41 -234.54,2304.21 -659.52,3330.19 -441.44,1065.73 -1088.34,2024.78 -1891.14,2827.58 -802.81,802.8 -1761.84,1449.68 -2827.57,1891.12 -1025.98,424.99 -2150.79,659.53 -3330.21,659.53 -1179.42,0 -2304.23,-234.54 -3330.21,-659.53 -1065.71,-441.44 -2024.76,-1088.32 -2827.57,-1891.12 -802.8,-802.82 -1449.68,-1761.85 -1891.12,-2827.58 -424.98,-1025.98 -659.53,-2150.78 -659.53,-3330.19 0,-1179.41 234.55,-2304.22 659.53,-3330.2 441.44,-1065.73 1088.3,-2024.76 1891.12,-2827.58 802.81,-802.8 1761.86,-1449.68 2827.57,-1891.12 1025.98,-424.99 2150.79,-659.53 3330.21,-659.53zm3319.21 686.27c-1022.44,-423.5 -2143.49,-657.24 -3319.21,-657.24 -1175.72,0 -2296.77,233.74 -3319.21,657.24 -1061.94,439.88 -2017.75,1084.63 -2818.03,1884.91 -800.3,800.3 -1445.04,1756.1 -1884.92,2818.06 -423.49,1022.43 -657.23,2143.49 -657.23,3319.19 0,1175.71 233.74,2296.75 657.23,3319.19 439.88,1061.96 1084.63,2017.75 1884.92,2818.05 800.28,800.28 1756.09,1445.04 2818.03,1884.92 1022.44,423.49 2143.49,657.23 3319.21,657.23 1175.72,0 2296.77,-233.74 3319.21,-657.23 1061.96,-439.88 2017.75,-1084.64 2818.03,-1884.92 800.29,-800.28 1445.06,-1756.09 1884.94,-2818.05 423.49,-1022.44 657.23,-2143.48 657.23,-3319.19 0,-2396.72 -971.53,-4566.61 -2542.17,-6137.25 -800.28,-800.28 -1756.07,-1445.03 -2818.03,-1884.91zm2742.98 1959.97c-790.48,-790.48 -1734.59,-1427.35 -2783.55,-1861.83 -1009.92,-418.3 -2117.27,-649.18 -3278.64,-649.18 -1161.35,0 -2268.72,230.88 -3278.62,649.18 -1048.97,434.48 -1993.07,1071.35 -2783.55,1861.83 -1551.42,1551.42 -2511.02,3694.74 -2511.02,6062.19 0,1161.37 230.87,2268.71 649.17,3278.63 434.5,1048.95 1071.34,1993.04 1861.85,2783.55 790.51,790.52 1734.6,1427.35 2783.55,1861.85 1009.92,418.3 2117.27,649.18 3278.62,649.18 1161.37,0 2268.72,-230.88 3278.62,-649.18 1048.95,-434.48 1993.05,-1071.33 2783.57,-1861.85 790.51,-790.51 1427.36,-1734.61 1861.84,-2783.56 418.31,-1009.91 649.18,-2117.25 649.18,-3278.62 0,-1161.37 -230.87,-2268.72 -649.18,-3278.62 -434.48,-1048.95 -1071.33,-1993.06 -1861.84,-2783.57zm-2772.55 -1888.57c1052.76,436.04 2000.08,1075.04 2793.08,1868.04 793.03,793.03 1431.99,1740.35 1868.05,2793.09 419.79,1013.49 651.48,2124.57 651.48,3289.63 0,1165.05 -231.69,2276.13 -651.48,3289.62 -436.06,1052.74 -1075.02,2000.06 -1868.05,2793.1 -793.03,793.03 -1740.36,1431.99 -2793.1,1868.05 -1013.48,419.79 -2124.56,651.47 -3289.62,651.47 -1165.06,0 -2276.14,-231.7 -3289.62,-651.47 -1052.74,-436.06 -2000.05,-1075.02 -2793.08,-1868.05 -793.04,-793.04 -1432,-1740.35 -1868.06,-2793.08 -419.77,-1013.49 -651.47,-2124.57 -651.47,-3289.64 0,-2375.47 962.84,-4526.04 2519.53,-6082.72 792.99,-793 1740.32,-1432 2793.08,-1868.04 1013.48,-419.79 2124.58,-651.47 3289.62,-651.47 1165.07,0 2276.15,231.7 3289.64,651.47zm-3289.64 1009.31c940.09,0 1836.69,186.98 2654.5,525.71 849.49,351.87 1613.94,867.47 2253.84,1507.4 639.92,639.92 1155.53,1404.36 1507.41,2253.85 338.74,817.82 525.72,1714.41 525.72,2654.49 0,940.06 -186.98,1836.65 -525.72,2654.46 -351.88,849.53 -867.51,1613.96 -1507.41,2253.88 -639.9,639.92 -1404.35,1155.52 -2253.84,1507.39 -817.81,338.74 -1714.41,525.72 -2654.5,525.72 -940.08,0 -1836.67,-186.98 -2654.49,-525.72 -849.49,-351.87 -1613.93,-867.47 -2253.83,-1507.39 -639.91,-639.92 -1155.53,-1404.35 -1507.41,-2253.88 -338.74,-817.81 -525.72,-1714.4 -525.72,-2654.46 0,-940.08 186.98,-1836.67 525.72,-2654.49 351.88,-849.49 867.49,-1613.93 1507.41,-2253.85 639.9,-639.93 1404.34,-1155.53 2253.83,-1507.4 817.82,-338.73 1714.41,-525.71 2654.49,-525.71zm2643.5 552.45c-814.24,-337.26 -1707.09,-523.42 -2643.5,-523.42 -936.39,0 -1829.25,186.16 -2643.48,523.42 -845.7,350.29 -1606.94,863.8 -2244.31,1501.19 -637.4,637.4 -1150.88,1398.6 -1501.2,2244.32 -337.27,814.24 -523.43,1707.09 -523.43,2643.49 0,936.37 186.16,1829.23 523.43,2643.46 350.32,845.74 863.83,1606.96 1501.2,2244.34 637.37,637.39 1398.61,1150.9 2244.31,1501.19 814.23,337.26 1707.09,523.42 2643.48,523.42 936.41,0 1829.26,-186.16 2643.5,-523.42 845.7,-350.29 1606.94,-863.8 2244.31,-1501.19 637.36,-637.38 1150.88,-1398.6 1501.2,-2244.34 337.27,-814.23 523.42,-1707.09 523.42,-2643.46 0,-936.4 -186.15,-1829.25 -523.42,-2643.49 -350.32,-845.72 -863.8,-1606.92 -1501.2,-2244.32 -637.37,-637.39 -1398.61,-1150.9 -2244.31,-1501.19zm2169.25 1576.26c-627.6,-627.6 -1377.09,-1133.17 -2209.84,-1478.12 -801.74,-332.07 -1680.88,-515.36 -2602.91,-515.36 -922.03,0 -1801.15,183.29 -2602.91,515.38 -832.75,344.93 -1582.24,850.52 -2209.82,1478.1 -627.58,627.58 -1133.18,1377.08 -1478.1,2209.82 -332.09,801.76 -515.39,1680.89 -515.39,2602.92 0,922.02 183.3,1801.15 515.37,2602.89 344.92,832.75 850.52,1582.26 1478.12,2209.86 627.58,627.58 1377.09,1133.17 2209.82,1478.1 801.76,332.07 1680.88,515.36 2602.91,515.36 922.03,0 1801.15,-183.29 2602.91,-515.36 832.75,-344.93 1582.26,-850.54 2209.84,-1478.1 627.6,-627.62 1133.19,-1377.13 1478.12,-2209.88 332.07,-801.74 515.36,-1680.85 515.36,-2602.87 0,-922.03 -183.29,-1801.16 -515.38,-2602.92 -344.92,-832.74 -850.52,-1582.24 -1478.1,-2209.82zm-2198.84 -1504.85c836.54,346.5 1589.27,854.22 2219.37,1484.32 630.1,630.1 1137.83,1382.83 1484.31,2219.35 333.56,805.32 517.68,1688.22 517.68,2613.92 0,925.73 -184.12,1808.57 -517.66,2613.88 -346.49,836.51 -854.21,1589.27 -1484.33,2219.4 -630.1,630.08 -1382.85,1137.82 -2219.37,1484.31 -805.33,333.56 -1688.21,517.66 -2613.91,517.66 -925.7,0 -1808.58,-184.1 -2613.91,-517.66 -836.5,-346.49 -1589.26,-854.21 -2219.36,-1484.31 -630.11,-630.12 -1137.84,-1382.87 -1484.32,-2219.39 -333.54,-805.3 -517.66,-1688.16 -517.66,-2613.89 0,-925.7 184.12,-1808.6 517.68,-2613.92 346.48,-836.52 854.2,-1589.25 1484.3,-2219.35 630.1,-630.1 1382.84,-1137.82 2219.36,-1484.31 805.32,-333.56 1688.21,-517.68 2613.91,-517.68 925.73,0 1808.61,184.12 2613.91,517.67z"/>
    <path class="fil0" d="M1930.64 6215.43l52.23 -151.39 -1036.2 14.69 -53.22 154.23 806.67 650.56 51.34 -148.77 -219.25 -169.99 121.09 -350.94 277.34 1.61zm-858.79 -3.56l1.35 -3.9 452.53 2.56 -95.99 278.17 -357.89 -276.83zm854.73 -695.49c160.76,73.5 326.81,-4.25 427.05,-195.72 107.2,-204.78 73.67,-385.67 -88.24,-470.42 -126.56,-66.25 -236.4,-30.37 -371.11,124.61l-73.05 82.97c-86.12,96.93 -145.89,123.66 -207.14,91.58 -76.76,-40.18 -92.14,-138.99 -37.52,-243.32 54.5,-104.13 143.85,-148.13 234.28,-110.66l68.07 -130.06c-151.47,-73.84 -318.56,-2.62 -414.08,179.88 -96.61,184.56 -62.59,367.53 86.63,445.65 120.67,63.16 233.65,28.68 355.07,-109.87l85.52 -97.78c86.22,-97.63 151.12,-123.75 218.3,-88.59 77.38,40.5 92.67,148.4 35.6,257.42 -59.52,113.7 -159.35,167.32 -250.12,132.02l-69.26 132.29zm1271.36 -1482.3l98.74 -126.09 -984.42 -323.87 -100.57 128.46 550.56 877.97 97.03 -123.93 -151.87 -232.14 228.86 -292.31 261.67 91.91zm-810.71 -283.28l2.54 -3.25 426.97 149.91 -181.41 231.7 -248.1 -378.36zm1373.42 -310.69l-467.88 -544.66 4.55 -3.9 851.21 215.38 102.95 -88.45 -635.15 -739.4 -111.16 95.5 468.31 545.2 -4.01 3.45 -851.67 -215.9 -103.46 88.88 635.15 739.39 111.16 -95.49zm1650.6 -1153.96l-152.82 -286.75 34.41 -147.58 504.37 228.63 165.74 -88.32 -624.95 -282.41 137.87 -562.53 -158.43 84.42 -141.07 601.07 -5.28 2.82 -218.27 -409.58 -133 70.88 458.42 860.22 133.01 -70.87zm972.83 -1530.29c43.6,-12.67 67.74,-57.6 55.53,-99.64 -12.42,-42.71 -56.67,-67.04 -100.27,-54.37 -43.36,12.59 -68.37,57.05 -55.95,99.75 12.21,42.05 57.33,66.86 100.69,54.26zm261.57 -75.99c43.6,-12.65 67.74,-57.59 55.53,-99.64 -12.4,-42.7 -56.69,-67.03 -100.29,-54.37 -43.36,12.59 -68.35,57.05 -55.95,99.76 12.21,42.04 57.33,66.86 100.71,54.25zm-110.55 108.43c-269.98,78.43 -384.61,313.3 -297.94,611.58 86.72,298.53 309.14,434.76 579.12,356.33 269.95,-78.44 385.01,-312.7 298.28,-611.22 -86.66,-298.3 -309.51,-435.11 -579.46,-356.69zm37.02 127.47c177.7,-51.63 330.1,53.34 393.73,272.43 63.52,218.63 -8.9,388.93 -186.59,440.55 -177.71,51.63 -330.33,-53.3 -393.83,-271.95 -63.65,-219.06 9,-389.41 186.69,-441.03zm1369.24 609.72l-54.3 -715.97 5.97 -0.45 558.2 677.76 135.35 -10.27 -73.73 -971.95 -146.14 11.08 54.35 716.67 -5.28 0.39 -558.26 -678.45 -136.01 10.32 73.73 971.95 146.12 -11.08zm1632.95 -1059.36c44.96,6.18 85.31,-25.05 91.25,-68.44 6.04,-44.05 -24.5,-84.3 -69.46,-90.46 -44.76,-6.13 -85.69,24.3 -91.73,68.37 -5.94,43.38 25.19,84.41 69.94,90.53zm268.48 36.81c44.96,6.17 85.31,-25.06 91.25,-68.44 6.04,-44.07 -24.5,-84.3 -69.46,-90.46 -44.76,-6.14 -85.69,24.3 -91.73,68.37 -5.94,43.38 25.2,84.4 69.94,90.53zm-387.75 37.55l-149.31 -20.46 -85.94 626.92c-28.57,208.43 99.25,375.5 341.69,408.73 241.77,33.14 410.52,-93.28 439.08,-301.72l85.94 -626.92 -149.3 -20.46 -84.22 614.35c-18.89,137.9 -119.85,222.93 -273.28,201.89 -153.42,-21.02 -227.79,-130.09 -208.88,-267.97l84.22 -614.36zm1686.8 1217.53l-435.49 -126.51 235.36 -810.12 -144.73 -42.05 -271.85 935.82 580.19 168.56 36.52 -125.7zm1061.13 464.92l-412.05 -189.36 352.26 -766.56 -136.94 -62.92 -406.91 885.48 548.99 252.29 54.65 -118.93zm1195.47 -344.94c37.05,26.21 87.26,17.14 112.55,-18.61 25.68,-36.31 17.15,-86.1 -19.89,-112.31 -36.88,-26.1 -87.23,-17.98 -112.93,18.33 -25.28,35.74 -16.6,86.5 20.27,112.59zm221.22 156.53c37.05,26.22 87.24,17.12 112.55,-18.62 25.68,-36.31 17.15,-86.1 -19.91,-112.31 -36.86,-26.09 -87.21,-17.97 -112.91,18.34 -25.29,35.75 -16.6,86.51 20.27,112.59zm-361.34 -145.6l-123.03 -87.04 -365.49 516.55c-121.51,171.74 -85.21,378.95 114.57,520.29 199.2,140.95 407.24,106.65 528.76,-65.09l365.5 -516.56 -123.02 -87.05 -358.17 506.21c-80.39,113.61 -209.21,142.47 -335.61,53.02 -126.42,-89.44 -142.07,-220.51 -61.68,-334.12l358.17 -506.21zm911.3 1893.21l-315.12 -326.13 606.68 -586.21 -104.7 -108.37 -700.82 677.15 419.82 434.5 94.14 -90.94zm692.2 151.99c-20.64,11.91 -41.81,25.05 -62.97,39.85 -253.76,177.52 -311.34,432.1 -150.31,662.25 160.63,229.61 419.78,263.16 673.54,85.63 253.39,-177.27 316.18,-430.44 160.57,-652.87 -108.71,-155.39 -302.66,-254.53 -440.29,-177.08 44.52,63.63 78.85,112.71 93.65,133.88 72.09,-32.45 178.96,37.91 236.55,120.22 90.22,128.96 60.39,286.52 -80.94,403.67l-429.8 -615.55zm-104.34 625.9c-97.62,-139.54 -63.26,-301.09 87.59,-427.15l342.93 490.15c-170.27,98.31 -333.03,76.33 -430.52,-63zm1255.86 716.04l87.93 194.68c48.18,106.68 17.19,199.31 -82.14,244.17 -101.86,46.01 -188.24,10.94 -236.43,-95.76l-89.62 -198.44 320.26 -144.65zm-431.14 194.72l87.91 194.68 -259.62 335.47 71.8 158.97 273.07 -362.78c84.88,91.63 210.73,111.66 331.08,57.31 165.9,-74.94 220.53,-236.14 137.91,-419.04l-157.53 -348.83 -888.13 401.11 62.01 137.34 341.5 -154.23zm92.11 1333.05l936.06 -271.94 -42.05 -144.73 -936.05 271.94 42.04 144.73zm1000.19 -368.33c13.75,47.36 62.98,73.87 109.66,60.29 47.36,-13.75 74.04,-62.3 60.3,-109.66 -13.77,-47.34 -62.32,-74.04 -109.66,-60.28 -46.71,13.56 -74.06,62.3 -60.3,109.65z"/>
    <path class="fil0" d="M1925.49 6208.17l47.19 -136.75 -1020.83 14.47 -49.89 144.63 794.68 640.89 46.31 -134.13 -219.27 -169.98 124.45 -360.73 277.36 1.6zm64.22 -141.79l-53.92 156.32 -277.34 -1.61 -117.7 341.14 219.25 169.97 -56.4 163.43c-272.7,-220.25 -545.48,-440.49 -818.63,-660.19 18.67,-54.66 37.63,-109.29 56.53,-163.86 350.45,-5.9 701.11,-10.23 1051.57,-14.91l-3.36 9.71zm-924.7 143.11l3.07 -8.76c155.91,0.51 311.88,1.57 467.78,2.64l-102.56 297.22 -369.99 -286.18 1.7 -4.92zm450.59 8.22l-427.5 -2.41 338.1 261.5 89.4 -259.09zm420.96 -704.83c75.88,32.55 152.72,30.73 222.62,-1.3 72.93,-33.42 138.56,-99.74 188.04,-194.26 52.84,-100.96 71.03,-195.86 56.06,-275.72 -14.82,-79.1 -62.42,-143.7 -141.23,-184.96 -61.45,-32.17 -118.76,-39.59 -176.87,-20.22 -58.82,19.66 -118.97,66.71 -185.43,143.17l-73.07 83.03c-43.76,49.22 -81.07,80.76 -115.44,96 -34.93,15.47 -66.73,14.34 -98.83,-1.96l-1.68 -0.85c-40.5,-21.21 -64.86,-57.87 -71.82,-102.9 -6.83,-44.25 3.21,-96.61 31.23,-150.14 28.15,-53.82 65.56,-92.09 107.69,-111.99 40.27,-19.01 84.78,-21.31 129.62,-4.48l61.56 -117.6c-71.88,-32.85 -147.11,-32.49 -215.77,-2.67 -70.94,30.8 -135.15,93.04 -181.99,182.54 -47.65,91.05 -63.04,181.58 -48.05,258.73 14.79,76.08 59.31,139.33 131.62,177.18 58.57,30.64 115.2,37.63 171.78,20.19 57.18,-17.62 114.68,-60.18 174.48,-128.42l85.53 -97.76c43.9,-49.73 82.56,-81.31 119.02,-96.06 37.5,-15.18 72.5,-12.8 108.07,5.82 40.89,21.4 65.39,60.48 72.06,108.39 6.54,47.05 -4.14,102.8 -33.34,158.66 -30.58,58.43 -71.66,101.44 -116.79,125.26 -43.54,22.97 -90.88,28.23 -136.34,12.51l-62.73 119.81zm228.62 11.86c-75.88,34.76 -159.46,35.77 -241.61,-1.78l-6.94 -3.17 75.81 -144.78 6 2.33c43.21,16.8 88.66,12.44 130.43,-9.6 42.61,-22.5 81.55,-63.36 110.68,-119.02 27.81,-53.18 38,-105.87 31.84,-150.09 -6.03,-43.3 -27.9,-78.47 -64.34,-97.55 -31.62,-16.55 -62.72,-18.68 -95.97,-5.21 -34.33,13.89 -71.25,44.21 -113.57,92.15l-85.53 97.76c-61.61,70.31 -121.31,114.31 -181.13,132.74 -60.39,18.61 -120.63,11.26 -182.71,-21.22 -76.45,-40.01 -123.53,-106.85 -139.16,-187.29 -15.6,-80.27 0.22,-174.09 49.45,-268.12 48.43,-92.54 115.16,-157.02 189.08,-189.13 74.7,-32.42 156.7,-31.88 234.58,6.09l6.7 3.27 -74.61 142.52 -6.12 -2.53c-42.95,-17.8 -85.64,-16.37 -124.06,1.76 -39.3,18.56 -74.4,54.64 -101.02,105.55 -26.57,50.75 -36.15,100.01 -29.77,141.27 6.17,39.93 27.46,72.5 62.82,91.56l1.4 0.74c28.54,14.94 56.82,16.18 87.98,2.36 32.33,-14.33 68.05,-44.68 110.38,-92.32l73.04 -82.97c68.21,-78.43 130.42,-126.85 191.76,-147.34 62.13,-20.7 123.08,-12.95 188.15,21.1 82.95,43.44 133.1,111.59 148.77,195.11 15.56,83.01 -3.07,181.13 -57.47,285.07 -51.01,97.46 -119.04,166 -194.86,200.74zm1030.26 -1499.21l89.16 -113.86 -969.79 -319.06 -94.29 120.44 542.38 864.92 87.46 -111.71 -151.84 -232.14c78.11,-100.35 156.64,-200.55 235.26,-300.5l261.66 91.91zm106.94 -113.08l-101.93 130.2 -261.68 -91.92 -222.44 284.11 151.86 232.16 -106.58 136.13c-186.58,-296.78 -372.52,-594.01 -558.74,-891.01l106.83 -136.47c333.15,109.08 666.14,218.88 999.05,328.7l-6.37 8.1zm-920.86 -166.12l5.76 -7.33 441.4 154.98 -193.87 247.6 -256.5 -391.15 3.21 -4.1zm423.3 154.61l-403.3 -141.58 234.34 357.37 168.96 -215.79zm945.61 -461.6l-467.85 -544.64 12.87 -11.09 851.21 215.36 94.61 -81.26 -625.71 -728.41 -100.18 86.06 468.33 545.2 -12.38 10.61 -851.66 -215.89 -95.11 81.71 625.69 728.39 100.18 -86.04zm-442.79 -537.72l463.24 539.28 -122.17 104.93c-214.59,-250.35 -429.67,-500.32 -644.58,-750.39 37.24,-32.01 74.4,-64.24 111.82,-96.05l842.02 213.44 -463.02 -539.01 122.17 -104.95c214.52,250.4 429.63,500.38 644.6,750.4l-111.32 95.61 -842.76 -213.26zm2093.82 -618.46l-150.69 -282.76c12.03,-52.97 24.66,-105.9 37.02,-158.81l509.18 230.8 149.59 -79.72 -617 -278.81 135.44 -552.68 -141.25 75.26 -141.05 601.07 -14.57 7.8 -218.29 -409.6 -120.24 64.07 451.62 847.45 120.24 -64.07zm-135.35 -284.73l154.92 290.7 -145.75 77.68c-155.53,-290.73 -310.32,-581.92 -465.23,-872.98l145.75 -77.68 215.83 404.99 139.5 -594.35c58.38,-31.43 117.05,-62.46 175.62,-93.57l-140.29 572.38 632.89 285.99c-60.64,32.25 -121.42,64.4 -181.89,96.93l-499.56 -226.45 -31.79 136.36zm1116.49 -1249.67c19.46,-5.81 34.68,-18.74 43.66,-34.88 9.2,-16.51 11.98,-36.46 6.41,-55.66 -5.64,-19.43 -18.61,-34.7 -35.09,-43.63 -16.24,-8.81 -35.97,-11.49 -55.56,-5.99l-0.71 0.21c-19.71,5.72 -35.34,18.75 -44.54,35.17 -9.09,16.22 -12,35.79 -6.64,54.95l0.52 1.05 0 0.72c5.71,18.54 18.58,33.35 34.83,42.14 16.62,9.02 36.81,11.81 56.58,6.07l0.54 -0.15zm56.31 -27.85c-10.85,19.48 -29.26,35.05 -52.83,41.89l-1.11 0.32c-23.26,6.43 -46.91,3.04 -66.38,-7.54 -19.8,-10.73 -35.4,-28.93 -42.12,-51.81l-0.36 -1.26c-6.34,-22.96 -2.83,-46.31 8.01,-65.62 10.93,-19.51 29.44,-34.97 52.86,-41.86l0.36 -0.12c23.65,-6.87 47.53,-3.72 67.17,6.92 19.71,10.68 35.26,29.02 42.04,52.38 6.69,23.06 3.36,46.95 -7.64,66.7zm208.76 -34.1l-1.11 0.33c-23.19,6.39 -46.74,3.05 -66.2,-7.42 -19.93,-10.75 -35.66,-29.04 -42.37,-52.09 -6.77,-23.31 -3.32,-47.12 7.7,-66.73 10.99,-19.59 29.62,-35.13 53.2,-41.97 23.69,-6.89 47.64,-3.69 67.31,6.99 19.68,10.71 35.17,29.04 41.93,52.31l0.32 1.13c6.22,22.59 2.9,45.85 -7.75,65.2 -10.83,19.66 -29.3,35.36 -53.03,42.25zm-3.42 -14.05c19.54,-5.83 34.77,-18.89 43.74,-35.15 9.06,-16.46 11.79,-36.27 6.25,-55.35l-0.29 -0.98c-5.76,-18.95 -18.53,-33.87 -34.67,-42.64 -16.46,-8.93 -36.51,-11.6 -56.38,-5.83 -19.74,5.73 -35.34,18.75 -44.56,35.19 -9.2,16.39 -12.08,36.23 -6.46,55.62 5.55,19.13 18.7,34.36 35.34,43.35 16.59,8.93 36.73,11.67 56.43,5.96l0.6 -0.17zm-107.15 122.48c-132.88,38.6 -227.53,115.64 -278.2,219.58 -50.78,104.2 -57.6,235.73 -14.8,383.06 42.78,147.32 118.95,254.57 217.52,315.22 98.49,60.59 219.68,74.79 352.65,36.17 133.01,-38.63 227.79,-115.61 278.51,-219.56 50.77,-104.03 57.64,-235.39 14.84,-382.7 -42.76,-147.25 -119.03,-254.62 -217.74,-315.38 -98.57,-60.66 -219.84,-74.99 -352.78,-36.39zm-291.22 213.24c52.46,-107.62 150.18,-187.32 287.21,-227.12 137.09,-39.8 262.36,-24.91 364.4,37.89 101.71,62.62 180.19,172.83 224.02,323.74 43.84,150.9 36.63,285.85 -15.7,393.06 -52.52,107.65 -150.37,187.25 -287.53,227.1 -137.13,39.84 -262.32,25.04 -364.27,-37.67 -101.59,-62.51 -179.95,-172.62 -223.8,-323.59 -43.84,-150.91 -36.66,-286.03 15.67,-393.41zm324.17 -99.63l1.18 -0.35c90.6,-26 174.88,-12.2 244.64,36.01 69.45,48.01 124.42,130.16 156.71,240.99l0.22 0.72c32.21,110.93 29.88,209.86 -3.13,287.7 -33.22,78.36 -97.34,135.32 -188.39,161.78l-1.11 0.33c-90.67,25.98 -174.95,12.18 -244.76,-35.95 -69.49,-47.94 -124.49,-130 -156.73,-240.64l-0.21 -0.67c-32.27,-111.15 -29.91,-210.19 3.12,-288.09 33.29,-78.43 97.44,-135.39 188.46,-161.83zm237.59 47.56c-66.28,-45.78 -146.46,-58.79 -232.85,-33.89l-1.04 0.52 -0.74 0c-86.02,25.3 -146.67,79.2 -178.08,153.26 -31.75,74.87 -33.89,170.55 -2.61,278.34l0.07 0.2c31.26,107.61 84.33,187.17 151.24,233.35 66.49,45.83 146.96,58.77 233.6,33.63l1.08 -0.31c86.06,-25.32 146.64,-79.22 178.02,-153.22 31.71,-74.79 33.83,-170.37 2.62,-277.94l-0.07 -0.2c-31.31,-107.83 -84.36,-187.51 -151.24,-233.74zm1125.94 562.4l-54.28 -715.98 16.92 -1.26 558.2 677.75 124.38 -9.45 -72.64 -957.49 -131.67 9.99 54.35 716.69 -16.23 1.22 -558.28 -678.47 -125.04 9.5 72.64 957.49 131.65 -9.99zm-38.2 -695.49l53.77 708.85 -160.57 12.19c-25.64,-328.66 -50.56,-657.64 -74.83,-986.4l146.95 -11.16 551.96 670.79 -53.71 -708.57 160.58 -12.19 74.83 986.41 -146.3 11.11 -552.68 -671.03zm1679.6 -364.4l0.3 0.04c20.47,2.81 39.94,-2.88 54.9,-14.23 14.88,-11.28 25.41,-28.14 28.16,-47.68l0.04 -0.31c2.74,-20.13 -2.85,-39.37 -14.24,-54.2 -11.3,-14.67 -28.3,-25.14 -48.53,-28.06l-0.49 -0.07c-20.4,-2.79 -39.98,2.75 -55.08,13.99 -14.91,11.07 -25.53,27.78 -28.4,47.55l-0.08 0.61c-2.71,19.78 3.07,39.07 14.64,54.03 11.44,14.81 28.62,25.49 48.78,28.33zm63.95 -2.64c-17.74,13.44 -40.73,20.26 -64.91,17.12l-0.67 -0.08c-24.26,-3.31 -44.86,-16.1 -58.6,-33.89 -13.73,-17.77 -20.66,-40.64 -17.64,-64.14l0.08 -0.66c3.3,-24.02 16.12,-44.38 34.2,-57.83 17.86,-13.34 40.93,-19.95 64.99,-16.84l0.67 0.09c24.41,3.34 44.94,15.96 58.57,33.71 13.54,17.69 20.28,40.49 17.21,64.25l-0.09 0.66c-3.24,23.66 -15.89,44.04 -33.81,57.61zm204.22 39.39l0.65 0.08c20.46,2.8 39.92,-2.91 54.88,-14.22 14.79,-11.21 25.28,-27.97 28.09,-47.39l0.09 -0.6c2.74,-20.04 -2.83,-39.25 -14.18,-54.1 -11.26,-14.7 -28.24,-25.19 -48.47,-28.12l-0.65 -0.09c-20.41,-2.79 -39.97,2.73 -55.07,13.97 -14.86,11.07 -25.49,27.8 -28.37,47.51l-0.08 0.67c-2.69,19.73 3.03,38.94 14.5,53.87 11.41,14.83 28.49,25.49 48.61,28.42zm64.27 -2.59c-17.74,13.42 -40.7,20.24 -64.87,17.12l-0.79 -0.08c-24.29,-3.34 -44.96,-16.18 -58.7,-34.09 -13.61,-17.76 -20.47,-40.52 -17.47,-63.9l0.09 -0.74c3.3,-23.99 16.14,-44.36 34.21,-57.81 17.87,-13.3 40.91,-19.92 64.94,-16.8l0.7 0.09c24.46,3.34 45.05,16.01 58.67,33.8 13.51,17.63 20.18,40.4 17.11,64.13l-0.09 0.69c-3.24,23.62 -15.89,44.02 -33.8,57.59zm-460.55 53.6l-134.96 -18.5 -84.94 619.73c-14.2,103.61 10.95,196.75 70.12,267.51 57.55,68.85 147.45,116.81 264.76,133l0.63 0.09c118.97,16.28 219.86,-6.57 294.33,-59.03 74.23,-52.28 122.48,-134.16 136.52,-236.16l85.01 -620.09 -134.96 -18.49 -83.21 607.15c-9.91,72.3 -41.93,130.61 -91.94,167.54 -47.84,35.35 -112.03,51.05 -188.83,40.66l-0.67 -0.09c-78.72,-10.78 -137.33,-44.37 -173.87,-93 -36.44,-48.54 -50.85,-111.89 -41.31,-182.44l83.32 -607.88zm-140.19 -33.84l156.51 21.46c-28.32,207.17 -57.18,414.33 -85.19,621.53 -9.18,67.02 4.22,126.94 38.41,172.5 34.2,45.51 89.42,76.99 163.9,87.26l0.36 0.05c73.18,10.03 134,-4.61 178.95,-37.83 46.8,-34.57 76.81,-89.49 86.18,-157.84l85.19 -621.55 163.67 22.44c-28.9,211.35 -58.34,422.69 -86.92,634.08 -14.55,106.28 -64.96,191.72 -142.6,246.4 -77.27,54.42 -181.46,78.26 -303.93,61.62l-0.68 -0.09c-121.37,-16.64 -214.63,-66.48 -274.55,-138.16 -61.83,-73.94 -88.14,-170.99 -73.38,-278.72l86.92 -634.12 7.16 0.97zm1826.22 1250.11l-435.51 -126.5 235.38 -810.13 -130.86 -38.02 -267.83 921.94 566.32 164.53 32.5 -111.82zm-417.6 -136.35l435.49 126.51 -40.55 139.57c-197.9,-57.8 -395.97,-115.49 -594.07,-172.58 92.21,-316.47 184.41,-633.02 275.88,-949.69l158.61 46.07 -235.36 810.12zm1478.06 599.88l-412.04 -189.34 352.26 -766.57 -123.8 -56.87 -400.85 872.34 535.84 246.23 48.59 -105.79zm-392.84 -196.46l412.02 189.37 -60.67 132.08c-187.27,-86.29 -374.61,-172.6 -562.14,-258.32 137.65,-299.54 275.59,-598.96 412.93,-898.63l150.1 68.95 -352.24 766.55zm1602.22 -157.81c16.84,11.83 36.7,15.71 55.19,12.57 18.5,-3.14 35.67,-13.34 47.16,-29.55 11.69,-16.51 15.58,-36.17 12.3,-54.66 -3.25,-18.41 -13.64,-35.7 -30.45,-47.6 -16.85,-11.89 -36.79,-15.99 -55.37,-12.99 -18.51,3 -35.82,13.11 -47.47,29.58 -11.47,16.25 -15.24,35.95 -11.95,54.53 3.29,18.61 13.68,36.14 30.44,48l0.15 0.12zm57.56 26.86c-22.09,3.76 -45.88,-0.92 -66.02,-15.17l-0.65 -0.44c-19.73,-14.28 -31.9,-34.95 -35.78,-56.87 -3.92,-22.23 0.62,-45.85 14.38,-65.32l0.55 -0.7c14.01,-19.41 34.54,-31.32 56.53,-34.88 22.2,-3.6 45.92,1.28 65.94,15.44l0.51 0.38c19.87,14.32 32.07,34.81 35.93,56.56 3.91,22.09 -0.77,45.66 -14.81,65.49 -13.8,19.49 -34.4,31.74 -56.58,35.51zm163.53 129.55c16.85,11.94 36.77,15.85 55.33,12.7 18.49,-3.14 35.65,-13.35 47.14,-29.55 11.65,-16.52 15.56,-36.13 12.34,-54.56 -3.23,-18.42 -13.63,-35.75 -30.51,-47.68 -16.8,-11.91 -36.73,-16.03 -55.33,-13.01 -18.53,3 -35.82,13.09 -47.5,29.57 -11.5,16.33 -15.28,36.11 -11.93,54.72 3.31,18.5 13.73,35.96 30.46,47.81zm57.7 26.99c-22.11,3.76 -45.87,-0.92 -66.01,-15.17 -19.99,-14.1 -32.41,-34.96 -36.37,-57.09 -4.03,-22.3 0.5,-46.04 14.31,-65.58 14.06,-19.79 34.81,-31.95 57.08,-35.55 22.16,-3.58 45.88,1.31 65.9,15.46 20.19,14.25 32.63,34.95 36.49,57.03 3.86,22.09 -0.82,45.61 -14.79,65.37 -13.83,19.51 -34.45,31.76 -56.61,35.53zm-433.27 -164.95l-111.24 -78.71 -361.33 510.65c-60.36,85.32 -81,179.56 -61.17,269.7 19.35,87.84 77.13,172 174.01,240.54 96.67,68.39 195.38,94.89 284.74,83.88 91.58,-11.26 173.63,-61.99 233.96,-147.24l361.33 -510.67 -111.22 -78.73 -354.03 500.35c-41.32,58.38 -95.24,95.06 -155.18,105.62 -59.72,10.51 -125.24,-4.89 -189.93,-50.51l-1.23 -0.88c-64.45,-45.83 -100.75,-102.42 -110.68,-162.23 -9.97,-60.02 6.64,-123.08 47.91,-181.44 117.1,-167.29 236.1,-333.61 354.06,-500.33zm-108.8 -94.67l128.92 91.22 -362.34 512.09c-39.04,55.25 -54.79,114.58 -45.45,170.8 9.32,56.24 43.88,109.72 105.32,153.22 61.57,43.57 123.53,58.34 179.72,48.44 55.98,-9.86 106.52,-44.29 145.53,-99.14 118.18,-171.9 242.22,-342.1 362.72,-512.66l134.8 95.4 -369.65 522.45c-62.8,88.73 -148.38,141.55 -244.01,153.31 -92.83,11.43 -195.02,-15.87 -294.82,-86.49 -100.03,-70.77 -159.78,-157.99 -179.87,-249.21 -20.7,-94.08 0.74,-192.33 63.57,-281.15l369.66 -522.44 5.9 4.16zm1019.93 1985.98l-315.14 -326.12 606.71 -586.23 -94.65 -97.97 -690.42 667.09 409.77 424.11 83.73 -80.88zm-294.66 -325.78l315.12 326.14 -104.55 101c-142.81,-148.67 -286.32,-296.98 -429.89,-444.93 237.34,-228.79 474.26,-458.05 711.24,-687.21l114.75 118.79 -606.67 586.21zm994.96 487.53l-25.3 15.36c-10.36,6.53 -20.87,13.47 -31.4,20.82 -125.36,87.74 -202.21,194.27 -227.79,307.06 -25.52,112.58 -0.01,231.77 79.24,345.07l0.28 0.37c79.06,112.87 182.19,177.54 296.57,192.14 114.61,14.64 240.9,-20.82 366.04,-108.19l0.6 -0.42c125.21,-87.59 203.3,-193.75 230.79,-305.3 27.41,-111.19 4.54,-228.08 -72,-337.49 -55.9,-79.9 -134.62,-144.73 -216.29,-177.57 -71.46,-28.74 -145.16,-32.92 -207.47,-1.13l85.65 122.45c34.81,-13.06 76.04,-5.26 116.02,15.06 46.93,23.86 92.58,65.22 123.86,109.92 46.46,66.4 61.89,140.29 47.39,212.62 -14.31,71.48 -57.92,141.34 -129.63,200.78l-6.07 5.02 -430.49 -616.57zm-33.01 3.12c10.56,-6.65 21.14,-12.99 31.54,-18.99l5.72 -3.29 429.07 614.46c65.47,-56.11 105.38,-121.14 118.64,-187.37 13.73,-68.46 -0.94,-138.47 -45.02,-201.48 -30.02,-42.9 -73.71,-82.51 -118.54,-105.29 -38.48,-19.54 -77.65,-26.64 -109.1,-12.5l-5.49 2.47 -101.67 -145.35 6.98 -3.92c67.9,-38.21 148.89,-34.85 227,-3.45 84.24,33.87 165.31,100.58 222.77,182.72 79.06,113 102.61,233.96 74.2,349.24 -28.29,114.77 -108.16,223.69 -235.97,313.28l-0.62 0.45c-128.38,89.8 -258.4,126.2 -376.72,111.08 -118.59,-15.15 -225.32,-81.98 -306.84,-198.49l-0.27 -0.38c-81.54,-116.79 -107.67,-239.81 -81.28,-356.25 26.38,-116.33 105.21,-225.88 233.55,-315.69 10.7,-7.47 21.41,-14.55 32.05,-21.25zm-75.14 617.33c-49.88,-71.29 -66.09,-148.31 -50.65,-223.68 15.46,-75.36 62.65,-148.91 139.54,-213.17l6.05 -5.05 351.97 503.09 -6.82 3.94c-86.89,50.17 -172.09,69.52 -248.05,58.41 -75.78,-11.07 -142.27,-52.41 -192.04,-123.54zm-36.46 -220.8c-14.63,71.46 0.84,144.65 48.32,212.5 47.36,67.69 110.45,106.99 182.27,117.48 70.75,10.35 150.28,-7.11 231.83,-52.71l-333.8 -477.1c-70.75,60.84 -114.24,129.66 -128.62,199.83zm1304.87 929.72l87.93 194.68c24.85,55.07 29.22,106.77 14.46,150.61 -14.79,43.98 -48.69,79.85 -100.23,103.13 -52.83,23.86 -101.85,26.6 -144.05,9.51 -42.04,-17.03 -77.06,-53.75 -101.94,-108.84l-92.63 -205.08c111.14,-50.22 222.24,-100.61 333.48,-150.59l2.98 6.58zm74.73 200.65l-84.95 -188.08 -307.08 138.68 86.65 191.85c23.31,51.57 55.63,85.76 94.22,101.4 38.46,15.58 83.6,12.87 132.59,-9.26 47.75,-21.56 79.03,-54.44 92.52,-94.54 13.58,-40.37 9.36,-88.41 -13.95,-140.05zm-505.89 -5.94l89.7 198.66 -259.62 335.46 64.99 143.87 270.92 -359.88 5.88 6.32c41.05,44.32 91.97,71.44 147.18,80.99 55.96,9.68 116.46,1.33 175.61,-25.37 81.23,-36.68 135.13,-94.48 158.45,-165.32 23.25,-70.66 16.26,-154.68 -24.14,-244.15l-154.57 -342.24 -874.92 395.16 56.04 124.15 341.5 -154.23 2.98 6.58zm72.93 196.69l-83.14 -184.12 -341.52 154.24 -67.96 -150.54c300.38,-135.77 600.66,-271.96 901.33,-407.07l160.53 355.41c41.96,92.92 49.11,180.57 24.72,254.65 -24.6,74.73 -81.16,135.56 -166.26,173.99 -61.86,27.94 -125.26,36.64 -184.02,26.46 -55.62,-9.61 -107.14,-36.15 -149.39,-79.24l-275.3 365.74 -78.62 -174.04 259.63 -335.48zm17.5 1130.39l922.2 -267.89 -38.01 -130.87 -922.2 267.9 38.01 130.86zm933.16 -256.03l-943.01 273.95 -46.07 -158.62c316.62,-92.02 633.23,-184.24 949.95,-275.95l46.07 158.61 -6.94 2.01zm69.16 -105.1l0.24 0.85c6.46,21.19 20.77,37.76 38.66,47.55 18.22,9.94 40.25,12.94 61.66,6.72l0.24 -0.09c21.66,-6.34 38.6,-20.62 48.52,-38.68 9.97,-18.15 12.96,-40.21 6.65,-61.95 -6.31,-21.73 -20.64,-38.75 -38.77,-48.71 -18.15,-9.97 -40.23,-12.94 -61.95,-6.63l-1.06 0.31c-20.89,6.36 -37.52,20.53 -47.39,38.37 -10.06,18.22 -13.2,40.3 -6.89,61.98l0.09 0.28zm-14.04 3.59l-0.22 -0.87c-7.05,-25.25 -3.33,-50.82 8.34,-71.94 11.83,-21.39 31.9,-38.27 57.13,-45.61l1.11 -0.32c25.29,-6.99 50.79,-3.45 71.84,8.12 21.39,11.74 38.25,31.8 45.69,57.42 7.42,25.61 3.93,51.56 -7.81,72.92 -11.74,21.39 -31.8,38.25 -57.4,45.67l-0.24 0.09c-25.22,7.25 -51.05,3.72 -72.42,-7.95 -21.44,-11.71 -38.5,-31.71 -45.94,-57.29l-0.08 -0.24z"/>
    <path class="fil1" d="M1044.89 8463.88c132.16,0 239.28,107.12 239.28,239.28 0,132.16 -107.12,239.28 -239.28,239.28 -132.16,0 -239.28,-107.12 -239.28,-239.28 0,-132.16 107.12,-239.28 239.28,-239.28z"/>
    <path class="fil0" d="M1647.53 12819.23l71.2 143.46 716.69 -748.55 -72.54 -146.14 -1029.55 118.18 69.97 140.98 274.95 -36.92 165.05 332.54 -195.77 196.45zm605.17 -609.33l1.85 3.71 -319.38 320.59 -130.83 -263.59 448.36 -60.71zm-29.63 1018.07c-132.78,116.69 -129.72,300.01 4.06,469.76 143.07,181.52 321.87,224.87 465.39,111.76 112.22,-88.43 124.35,-203.33 37.97,-389.63l-45.84 -100.59c-53.27,-118.22 -53.22,-183.68 1.08,-226.46 68.06,-53.64 164.52,-27.27 237.41,65.21 72.74,92.31 76.38,191.84 5.22,259.05l90.88 115.3c129.31,-108.08 132.6,-289.66 5.1,-451.45 -128.94,-163.62 -309.84,-207.36 -442.14,-103.09 -106.96,84.3 -121.68,201.5 -44.87,368.94l54.28 118.02c53.86,118.61 51.17,188.51 -8.39,235.45 -68.59,54.05 -173.31,23.91 -249.47,-72.74 -79.45,-100.8 -87.57,-213.82 -18.24,-282.25l-92.44 -117.28zm1101.91 1636.24l115.53 110.89 421.18 -946.85 -117.69 -112.99 -928.87 459.51 113.55 108.99 246.24 -127.75 267.82 257.08 -117.76 251.12zm363.36 -778.14l2.97 2.86 -192.07 409.74 -212.3 -203.79 401.4 -208.81zm325.24 1321.97l391.27 -602.07 5.03 3.26 32.45 877.44 113.82 73.96 531.15 -817.32 -122.89 -79.86 -391.64 602.64 -4.44 -2.88 -32.09 -878.02 -114.38 -74.33 -531.15 817.32 122.87 79.86zm2107.44 1062.83l638.05 -814.82 -153.02 -51 -506.84 679.05 -3.71 -1.24 2.49 -847.12 -155.66 -51.86 21.72 1034.68 156.97 52.31zm1477.03 -653.73c-276.55,-51.67 -484.73,106.34 -541.77,411.68 -57.1,305.58 80.07,527.42 356.65,579.09 276.11,51.59 484.38,-105.69 541.48,-411.27 57.06,-305.34 -80.24,-527.9 -356.36,-579.5zm-24.37 130.48c182.35,34.09 270.41,196.33 228.5,420.58 -41.81,223.81 -182.52,343.33 -364.88,309.25 -182.12,-34.02 -271.07,-196.47 -229.26,-420.27 41.91,-224.24 183.52,-343.59 365.64,-309.56zm1500.17 804.78l-453.24 15.21 -28.29 -843.16 -150.63 5.07 32.69 973.96 603.86 -20.27 -4.39 -130.81zm527.26 -877.72l-148.13 27.68 116.23 622.02c38.64,206.81 212.64,325.01 452.95,280.11 240.11,-44.86 360.37,-218.06 321.73,-424.86l-116.23 -622.03 -148.15 27.69 113.91 609.55c25.55,136.81 -43.21,249.31 -195.88,277.84 -152.67,28.52 -256.96,-51.64 -282.52,-188.45l-113.91 -609.55zm1568.81 638.91l-240.28 -676.65 5.64 -2 716.49 507.54 127.9 -45.42 -326.15 -918.54 -138.12 49.04 240.5 677.29 -5 1.77 -716.72 -508.2 -128.53 45.65 326.17 918.56 138.1 -49.04zm1545.67 -674.31l-426.38 -729.29 261.6 -152.95 -65.61 -112.2 -653.87 382.32 65.59 112.2 262.18 -153.31 426.4 729.29 130.09 -76.06zm1155.23 -962.5l-366.85 289.13 -186.86 -237.08 347.31 -273.72 -77.6 -98.47 -347.31 273.72 -177.29 -224.96 366.86 -289.13 -80.44 -102.08 -485.23 382.41 603.2 765.4 485.23 -382.41 -81.02 -102.81zm872.33 -850.4l-323.48 336.96 -217.75 -209.03 306.23 -319.01 -90.45 -86.82 -306.22 319.01 -206.64 -198.36 323.46 -336.96 -93.74 -90 -427.84 445.68 703.01 674.86 427.84 -445.68 -94.42 -90.65zm-124.84 -1011.32l124.1 -173.87c68.01,-95.27 163.67,-115.02 252.39,-51.7 90.95,64.93 104.04,157.24 36.04,252.51l-126.52 177.22 -286.01 -204.16zm385.05 274.85l124.09 -173.86 420.52 55.85 101.34 -141.97 -450.87 -53.75c36.54,-119.42 -9.39,-238.3 -116.87,-315.01 -148.16,-105.77 -314.98,-71.95 -431.59,91.38l-222.38 311.54 793.16 566.18 87.56 -122.65 -304.96 -217.71zm662.8 -839.29c165.03,63.3 325.92,-24.63 414.03,-221.99 94.2,-211.06 49.46,-389.51 -117.42,-463.99 -130.45,-58.24 -237.82,-15.58 -362.61,147.5l-67.74 87.36c-79.9,102.12 -137.89,132.51 -201.02,104.33 -79.13,-35.32 -100.62,-132.99 -52.63,-240.5 47.91,-107.33 134.35,-156.82 226.92,-125.08l59.84 -134.05c-155.8,-64.24 -318.1,17.26 -402.07,205.37 -84.9,190.22 -39.55,370.71 114.27,439.38 124.37,55.51 234.97,14.04 347.51,-131.81l79.27 -102.91c79.96,-102.84 143.11,-132.94 212.34,-102.04 79.77,35.6 101.74,142.33 51.59,254.69 -52.31,117.2 -148.61,176.93 -241.41,147.38l-60.87 136.36z"/>
    <path class="fil0" d="M1656.32 12820.66l64.31 129.57 706.05 -737.43 -68.03 -137.01 -1014.24 116.39 63.08 127.11 274.94 -36.91c56.54,113.92 112.8,228.06 169.68,341.82l-195.79 196.46zm55.91 145.24l-73.49 -148.11 195.77 -196.44 -160.45 -323.24 -274.92 36.92c-25.78,-51.54 -51.25,-103.25 -76.87,-154.88 348.19,-40.17 696.53,-80.95 1044.85,-119.91l77.06 155.24c-243.11,252.52 -484.79,506.59 -727.35,759.66l-4.6 -9.24zm546.98 -759.25l4.16 8.38c-110.26,110.26 -220.18,220.92 -330.18,331.44l-139.81 -281.66c154.44,-21.15 308.99,-42.25 463.53,-62.79l2.3 4.63zm-322.03 315.31l301.73 -302.88 -423.6 57.36 121.87 245.52zm284.99 716.57c-60.71,55.96 -90.45,126.83 -89.8,203.71 0.69,80.16 34.4,167.2 100.47,251.01 70.54,89.51 149.7,144.9 228.67,163.86 78.23,18.79 156.64,1.75 226.54,-53.32 54.49,-42.94 84.69,-92.22 90.74,-153.11 6.12,-61.71 -12.26,-135.84 -54.89,-227.79l-45.83 -100.62c-27.06,-60.04 -40.59,-106.98 -40.45,-144.52 0.14,-38.91 14.67,-67.84 43.64,-90.65 35.93,-28.3 79.34,-35.52 123.32,-23.43 43.18,11.84 86.87,42.42 124.27,89.88 37.53,47.63 57.19,97.41 58.12,144.03 0.89,44.51 -15.2,86.07 -48.87,120.11l82.17 104.27c59.36,-52.2 89.76,-120.96 90.6,-195.79 0.84,-77.31 -29.68,-161.38 -92.21,-240.72 -63.45,-80.52 -139.5,-131.5 -215.77,-149.46 -75.61,-17.81 -151.66,-3.17 -215.9,47.31l-0.31 0.24c-51.9,40.89 -81.45,89.71 -88.63,148.45 -7.28,59.42 8.04,129.33 45.87,211.78l54.26 118.02c27.39,60.34 40.42,108.53 39,147.85 -1.46,40.47 -17.97,71.48 -49.49,96.31 -36.23,28.58 -81.98,34.9 -128.55,21.33 -45.66,-13.31 -92.14,-45.85 -131.1,-95.3 -40.74,-51.7 -63.18,-106.75 -66.47,-157.71 -3.15,-49.07 11.38,-94.44 44.32,-129.51l-83.72 -106.23zm-104.27 203.81c-0.72,-83.47 32.54,-160.17 100.41,-219.82l5.74 -5.04 101.16 128.36 -4.63 4.58c-32.97,32.53 -47.58,75.81 -44.54,122.96 3.1,48.06 24.51,100.29 63.41,149.65 37.08,47.05 80.92,77.9 123.7,90.36 42.07,12.26 83.2,6.69 115.6,-18.85 28,-22.08 42.66,-49.57 43.96,-85.41 1.34,-36.97 -11.26,-83.1 -37.71,-141.35l-54.25 -118.01c-38.97,-84.97 -54.71,-157.43 -47.1,-219.53 7.66,-62.63 38.91,-114.53 93.74,-157.84l0.36 -0.3c67.94,-53.54 148.42,-69.09 228.43,-50.23 79.3,18.66 158.1,71.28 223.54,154.17l0.32 0.41c64.64,82 96.19,169.26 95.3,249.82 -0.93,81.48 -34.97,156.07 -101.45,211.66l-5.73 4.78 -99.58 -126.37 4.82 -4.56c33.8,-31.91 49.94,-71.47 49.1,-113.93 -0.87,-43.45 -19.5,-90.21 -55.07,-135.35 -35.43,-44.98 -76.44,-73.86 -116.65,-84.88 -39.49,-10.85 -78.45,-4.42 -110.57,20.89 -25.3,19.94 -38,45.22 -38.12,79.24 -0.12,35.39 12.97,80.4 39.16,138.54l45.8 100.53c43.74,94.3 62.51,170.85 56.13,235.26 -6.47,65.19 -38.51,117.65 -96.19,163.12 -73.51,57.92 -156.21,75.81 -238.84,55.97 -82.15,-19.73 -164.12,-76.84 -236.72,-168.97 -68.08,-86.35 -102.82,-176.47 -103.53,-259.86zm1215.83 1420.24l104.36 100.16 414.93 -932.77 -110.35 -105.96 -915.09 452.68 102.35 98.25 246.25 -127.76c91.58,88.23 183.31,176.47 275.32,264.26l-117.77 251.14zm101.76 117.73l-119.26 -114.48 117.75 -251.12 -260.32 -249.88 -246.24 127.75 -124.74 -119.74c314.35,-155.14 628.68,-310.51 942.68,-466.33 41.51,40.14 83.3,80.09 125,120.03l-427.43 960.9 -7.44 -7.13zm257.87 -899.45l6.72 6.42c-66.23,141.17 -132.55,282.32 -198.55,423.58l-226.9 -217.76c138.32,-71.94 276.78,-143.68 414.96,-215.88l3.77 3.64zm-196.37 405.6l181.42 -387.06 -379.17 197.27 197.75 189.79zm514.47 911.57l391.27 -602.08 14.24 9.24 32.47 877.45 104.59 67.98 523.26 -805.19 -110.76 -71.97 -391.65 602.64 -13.62 -8.88 -32.12 -878.03 -105.16 -68.32 -523.26 805.19 110.74 71.97zm391.65 -576.09l-387.4 596.11 -135.01 -87.76c180,-276.26 358.86,-553.29 539.05,-829.44l123.58 80.3 31.74 868.11 387.23 -595.82 135.03 87.74c-180.19,276.12 -359.41,552.97 -539.05,829.45 -41,-26.63 -82.14,-53.15 -123.02,-79.95l-32.15 -868.74zm1715.33 1640.46l628.61 -802.75 -138.3 -46.1 -506.83 679.05 -13.66 -4.54 2.48 -847.13 -140.95 -46.95 21.39 1019.35 147.26 49.07zm646.33 -801.89l-641.19 818.81c-55.58,-18.34 -111.17,-36.9 -166.65,-55.53 -8.24,-349.91 -15.01,-700.05 -22.04,-1050l170.35 56.74 -2.46 836.68 500.59 -670.68 167.73 55.91 -6.33 8.07zm832.68 163.89l-0.75 -0.13c-136.15,-25.42 -255.41,0.66 -347.48,70.6 -92.13,69.99 -157.4,184.03 -185.68,334.45l-0.15 0.84c-28.18,150.85 -8.56,280.9 52.14,379.44 60.62,98.45 162.48,165.75 298.73,191.2 136.06,25.4 255.32,-0.58 347.41,-70.53 91.99,-69.86 157.21,-183.74 185.47,-334.16l0.16 -0.84c28.16,-150.78 8.43,-281.01 -52.32,-379.72 -60.52,-98.32 -161.97,-165.66 -297.53,-191.15zm-356.97 58.95c95.18,-72.28 218.03,-99.4 358.03,-73.46l0.89 0.15c140.16,26.17 245.19,95.9 307.96,197.9 62.49,101.55 82.94,235.02 54.32,389.16l-0.16 0.87c-28.85,154.45 -96.09,271.66 -191.11,343.82 -95.4,72.46 -218.57,99.42 -358.82,73.23 -140.45,-26.22 -245.59,-95.86 -308.37,-197.81 -62.46,-101.41 -82.84,-234.73 -54.21,-388.89l0.15 -0.87c28.86,-154.45 96.16,-271.81 191.32,-344.1zm334.53 57.16c93.4,17.45 162.75,67.84 203.37,142.6 40.35,74.29 52.19,172.62 30.92,286.43l-0.05 0.34c-21.31,113.5 -67.79,200.64 -132.13,255.2 -64.67,54.85 -147.22,76.8 -240.27,59.63l-1.3 -0.24c-93.07,-17.48 -162.44,-67.87 -203.21,-142.52 -40.46,-74.06 -52.57,-172.02 -31.56,-285.23l0.14 -0.8c21.3,-113.9 68.06,-201.26 132.7,-255.9 64.85,-54.85 147.57,-76.81 240.52,-59.67l0.87 0.16zm190.65 149.53c-38.46,-70.81 -104.24,-118.58 -192.98,-135.24l-0.36 -0.06c-88.76,-16.6 -167.64,4.18 -229.35,56.35 -61.97,52.42 -106.95,136.61 -127.65,246.61l-0.16 0.91c-20.57,110.19 -9.07,205.06 29.89,276.42 38.71,70.87 104.76,118.71 193.53,135.28l0.36 0.05c88.82,16.54 167.39,-4.26 228.82,-56.35 61.93,-52.5 106.71,-136.92 127.3,-247.09l0.07 -0.36c20.56,-110.32 9.27,-205.2 -29.47,-276.52zm1301.2 669.83l-453.21 15.2 -28.32 -843.15 -136.16 4.6 32.21 959.49 589.39 -19.8 -3.91 -116.34zm-439.24 0.26l453.21 -15.22 4.89 145.27c-206.08,7.31 -412.22,13.9 -618.31,20.78 -11.69,-329.43 -22.23,-658.97 -33.19,-988.43l165.1 -5.57 28.3 843.17zm967.7 -877.01l-133.9 25.03 114.91 614.9c19.2,102.78 72.43,183.2 150.85,231.71 76.44,47.27 177.07,64.4 293.64,42.63 116.54,-21.77 204.34,-74.17 258.69,-145.93 55.71,-73.58 76.45,-167.79 57.27,-270.49l-114.91 -614.91 -133.91 25.02 112.57 602.42c13.41,71.78 1.48,137.22 -34.36,188.04 -34.37,48.75 -90.59,83.92 -167.31,98.25l-0.84 0.15c-77.98,14.39 -143.83,1 -193.54,-33.54 -49.91,-34.66 -83.44,-90.55 -96.57,-160.82l-112.59 -602.46zm-143.68 12.14l155.25 -29.04c38.67,205.74 76.22,411.78 115.39,617.39 12.51,66.12 43.91,118.55 90.5,150.9 46.75,32.48 109.14,44.92 183.39,31.05l0.77 -0.13c72.39,-13.7 125.26,-46.68 157.37,-92.22 33.56,-47.59 44.66,-109.19 32,-177.03l-115.25 -616.68 162.38 -30.34 117.57 629.14c19.95,106.85 -1.75,205.04 -59.94,281.9 -56.48,74.58 -147.32,128.94 -267.58,151.41 -120.3,22.47 -224.46,4.58 -303.92,-44.54 -81.93,-50.69 -137.5,-134.45 -157.47,-241.35l-117.58 -629.14 7.12 -1.32zm1709.02 613.92l-240.3 -676.65 16.01 -5.68 716.49 507.55 117.56 -41.75 -321.31 -904.87 -124.45 44.19 240.49 677.28 -15.36 5.44 -716.71 -508.19 -118.18 41.98 321.33 904.89 124.43 -44.19zm-219.41 -661.16l237.92 669.97 -151.77 53.89c-109.87,-310.89 -220.47,-621.58 -331.02,-932.23l138.9 -49.33 708.63 502.46 -237.78 -669.64 151.79 -53.89c110.32,310.75 220.9,621.39 331.01,932.21l-138.25 49.09 -709.43 -502.53zm1764.43 -11.31l-426.41 -729.32 261.61 -152.94 -58.3 -99.69 -641.34 374.97 58.31 99.72 262.14 -153.28 426.39 729.29 117.6 -68.75zm-406.54 -724.11l426.35 729.25 -142.6 83.37 -426.38 -729.27 -262.2 153.3 -72.9 -124.68c222.36,-129.4 444.46,-259.5 666.4,-389.62l72.92 124.69 -261.59 152.96zm1570.48 -225.63l-366.86 289.11 -195.85 -248.48 347.33 -273.69 -68.63 -87.08 -347.31 273.7 -186.27 -236.36 366.86 -289.1 -71.46 -90.7 -473.85 373.43 594.23 754.02 473.85 -373.43 -72.04 -91.42zm-364.45 268.75l366.85 -289.13 90 114.2c-165.4,130.62 -330.94,261.14 -496.63,391.39 -203.85,-259.09 -407.97,-518 -612.19,-776.8 165.8,-130.06 331.42,-260.61 496.63,-391.39l89.42 113.48 -366.84 289.12 168.31 213.58 347.29 -273.72 86.59 109.86 -347.31 273.71 177.88 225.7zm1238.18 -1119.1l-323.47 336.94 -228.2 -219.05 306.24 -319.01 -80.01 -76.79 -306.22 318.99 -217.08 -208.37 323.47 -336.95 -83.32 -79.98 -417.81 435.24 692.58 664.84 417.8 -435.25 -83.98 -80.61zm-323.88 316.49l323.45 -336.96 104.86 100.65c-145.45,152.42 -291.64,304.42 -437.84,456.13 -238.11,-227.96 -475.72,-456.53 -713.45,-684.88 146,-151.98 292.12,-303.88 437.84,-456.11l104.19 100.01 -323.45 336.97 196.21 188.33 306.2 -319.01 100.89 96.83 -306.23 319.02 207.33 199.02zm192.94 -1342.25l124.1 -173.87c35.12,-49.19 77.64,-78.95 122.94,-88.24 45.48,-9.29 93.5,1.98 139.54,34.85 47.15,33.66 74.2,74.66 80.63,119.74 6.39,44.92 -7.75,93.64 -42.89,142.86l-130.72 183.12 -297.81 -212.58 4.21 -5.88zm135.89 -165.47l-119.89 167.99 274.24 195.75 122.29 -171.33c32.87,-46.05 46.17,-91.2 40.31,-132.4 -5.86,-41.11 -30.9,-78.76 -74.66,-110.01 -42.63,-30.42 -86.76,-40.93 -128.26,-32.44 -41.7,8.55 -81.12,36.35 -114.03,82.44zm249.16 440.33l126.62 -177.44 420.53 55.86 91.71 -128.46 -447.33 -53.33 2.53 -8.26c17.67,-57.78 15.53,-115.47 -3.96,-167.99 -19.52,-52.62 -56.47,-100.18 -108.29,-137.66l-1.92 -1.38c-72.34,-51.62 -149.13,-69.24 -221.92,-54.02 -73,15.27 -142.33,63.61 -199.53,143.7l-218.19 305.66 781.37 557.78 79.14 -110.89 -304.97 -217.7 4.21 -5.87zm133.35 -161.93l-117.35 164.44 304.95 217.68 -95.97 134.47c-268.25,-191.61 -536.53,-383.24 -804.94,-574.62 75.47,-105.22 153.73,-211.42 226.97,-317.95 59.4,-82.9 131.65,-132.99 208.01,-148.96 76.1,-15.93 156.13,2.04 231.34,55.05l1.95 1.37c55.24,39.44 94.66,89.87 115.4,145.8 19.65,52.91 22.59,110.77 6.6,168.93l454.54 54.16c-36.94,51.85 -73.81,103.82 -111,155.48l-420.5 -55.85zm545.11 -677.28c77.76,27.71 154.34,21.13 222.1,-15.19 70.72,-37.91 132.08,-108.22 175.58,-205.64l0.56 -1.27c45.92,-103.49 57.99,-198.83 38.21,-277.24 -19.59,-77.65 -70.7,-138.96 -151.16,-175.31l-1.39 -0.62c-63.31,-28.26 -120.97,-32.08 -177.76,-9.11 -57.48,23.22 -114.56,73.94 -176.14,154.41l-67.78 87.38c-40.62,51.93 -75.87,85.73 -109.18,103.04 -34.47,17.93 -66.79,18.5 -100.51,3.47 -41.78,-18.67 -68.4,-53.75 -78.15,-98.32 -9.55,-43.65 -2.76,-96.55 21.87,-151.74 24.73,-55.43 59.68,-95.98 100.51,-118.45 39.01,-21.51 83.26,-26.57 129.08,-12.57l54.11 -121.23c-73.82,-28.3 -148.86,-23.22 -215.52,10.84 -68.53,35 -128.46,100.62 -169.62,192.08l-0.67 1.49c-41.75,93.55 -51.52,184.6 -31.98,260.53 19.39,75.33 67.82,135.92 142.61,169.29 60.35,26.93 117.3,30.38 172.68,9.43 55.96,-21.17 110.74,-67.24 166.16,-139.07l79.25 -102.89c40.66,-52.32 77.3,-86.24 112.82,-103.27 36.49,-17.5 71.59,-17.3 108.2,-0.96 42.15,18.8 69.02,56.27 78.66,103.71 9.47,46.57 2.28,102.94 -23.42,160.53 -26.82,60.13 -65.16,105.59 -108.7,132.17 -42.01,25.62 -88.92,33.83 -135.3,20.98l-55.12 123.53zm228.92 -2.44c-73.58,39.44 -156.95,45.65 -241.26,13.32l-7.13 -2.74 66.6 -149.24 6.15 1.96c44.16,14.05 89.25,6.87 129.6,-17.74 41.12,-25.11 77.46,-68.34 103.05,-125.69 24.42,-54.75 31.33,-108.02 22.41,-151.76 -8.7,-42.87 -32.75,-76.63 -70.36,-93.4 -32.56,-14.53 -63.72,-14.72 -96.06,0.79 -33.31,15.98 -68.29,48.58 -107.61,99.12l-79.25 102.86c-57.1,73.99 -113.97,121.63 -172.5,143.77 -59.12,22.37 -119.69,18.79 -183.69,-9.77 -79.03,-35.27 -130.23,-99.31 -150.73,-178.92 -20.22,-78.57 -10.44,-172.36 32.14,-268.48l0.67 -1.53c42.57,-95.38 105.13,-163.91 176.9,-200.55 72.52,-37.04 154.38,-41.6 234.51,-8.56l6.87 2.85 -65.56 146.91 -6.24 -2.16c-43.98,-15.09 -86.5,-10.99 -123.72,9.53 -38.08,20.96 -70.85,59.18 -94.27,111.63 -23.31,52.24 -29.78,102 -20.87,142.79 8.76,40.02 32.55,71.51 69.86,88.17 29.4,13.11 57.68,12.58 87.93,-3.15 31.42,-16.32 65.16,-48.85 104.43,-99.04l67.69 -87.28c63.18,-82.56 122.22,-134.78 182.21,-159.06 60.23,-24.37 121.1,-20.65 187.6,8.68l1.53 0.67c85.56,38.18 139.86,103.13 160.68,185.59 20.64,81.82 8.14,180.86 -39.61,287.92l-0.58 1.28c-44.82,99.79 -108.19,172 -181.39,211.23z"/>
    <path class="fil1" d="M16367.82 8463.88c132.16,0 239.28,107.12 239.28,239.28 0,132.16 -107.12,239.28 -239.28,239.28 -132.16,0 -239.28,-107.12 -239.28,-239.28 0,-132.16 107.12,-239.28 239.28,-239.28z"/>
    <g>
     <g>
      <path class="fil1" d="M10762.84 10902.45l3.68 1.64c-0.24,-0.1 -4.23,-0.41 -3.68,-1.64zm-15.76 -14.44c0.55,-1.23 3.2,0.39 3.68,1.65l-3.68 -1.65zm-19.17 -23.37l16.93 13.48 -16.93 -13.48zm0 0l-1444.23 -1340.46c-50.08,52.93 -183.08,135.61 -252.72,168.42 -172.19,81.11 -252.14,67.52 -322.74,92.75 -3.55,29.16 -3.15,63.99 -4.94,94l-8.06 299.84 1042.35 1030.47c28.86,27.53 42.45,40.75 71.83,71.19l277.99 272.5c52.27,48.65 76.14,40.24 181.52,41.03 66.7,0.49 135.68,2.19 205.9,2.97l593.19 14.09c140.82,2.32 290.15,-14.25 366.23,-165.02 53.6,-106.23 42.59,-165.53 37.52,-279.3 -1.85,-41.53 -0.42,-66.91 -1.34,-104.2l-15.19 -406.43c-0.88,-35.66 0.85,-56.73 -0.98,-96.66 -1.76,-38.7 -3.11,-72.09 -4.69,-105.71 -8.85,-189.23 25.79,-173.35 -88.39,-278.51l-137.95 -138.6c-28.7,-26.59 -45.58,-45.28 -71.77,-71.31 -45.71,-45.43 -91.12,-85.65 -138.55,-137.26 -55.37,-60.25 -32.26,-47.29 -181.62,-40.76l-413.79 15.1c-96.84,4.23 -577.72,13.78 -618.3,25.56l928.73 1036.3z"/>
      <path class="fil1" d="M5541.94 8704.82c-42.39,16.23 -16.85,6.68 -30.19,1.33 42.39,-16.22 16.86,-6.68 30.19,-1.33zm-30.19 1.33l-21.06 2.43 21.06 -2.43zm-42.54 -4.19l3.69 1.65c-0.25,-0.12 -4.24,-0.43 -3.69,-1.65zm72.73 2.86l1957.11 -73.58c-10.95,-79.71 62.53,-327.63 92.25,-380.68l82.6 -140.74c18.78,-27.03 30.24,-43.07 50.52,-66.25l-251.32 -265.95c-38.53,-36.32 -42.35,-20.75 -152.7,-22.66l-971.91 5.31c-73.28,2.02 -144.54,-2.11 -222.35,0.73 -73.74,2.69 -142.24,2.7 -215.17,1.22 -35.83,-0.73 -70.24,-0.34 -103.87,0.58l-214.78 0.33c-112.33,3.13 -128.13,-17.04 -202.63,52.21 -27.84,25.88 -52.75,52.25 -78.71,75.87 -25.47,23.19 -50.49,47.16 -73.81,70.67 -130.45,131.51 -444.12,414.48 -541.07,520.74 -99.85,109.45 -124.34,263.64 -38.64,396.43 38.18,59.14 235.1,239.47 297.01,296.2 101.01,92.57 201.59,190.42 302.83,283.21 24.89,22.83 46.31,42.65 73.53,67.38 132.8,120.71 71.26,113.03 281.51,115.42 67.3,0.76 144.34,1.59 214.79,-0.35 340.99,-9.37 262.55,35.19 383.81,-97.15l426.82 -453.32c48.94,-53.55 92.67,-101.11 139.61,-152.31l106.4 -115.32c27.87,-26.23 29.84,-7.57 25.61,-47.76l-682.55 -29.44c-60.31,-1.21 -105.67,-6.75 -166.73,-7.81 -58.44,-1.02 -119.13,-9.77 -173.1,-10.13 -60.9,-0.39 -114.55,-7.44 -174.16,-7.77 -31.75,-0.18 -139.83,-3.73 -170.9,-15.08z"/>
      <path class="fil1" d="M6412.21 6540.01l-16.93 -13.48 16.93 13.48zm-31.52 -28.87l3.69 1.64c-0.25,-0.1 -4.23,-0.41 -3.69,-1.64zm-15.75 -14.44l5.18 2.32c-0.05,-0.02 -1.41,-0.64 -1.5,-0.67 -0.24,-0.12 -4.22,-0.42 -3.68,-1.65zm47.27 43.31l133.22 116.04c19.51,18.62 25.8,29.1 45.31,47.72l1269.11 1185.63c41.65,-20.05 142.91,-116.86 265,-162.93 52.75,-19.9 117.61,-49.19 169.78,-64.92 41.67,-12.56 111.74,-22.13 153.02,-27.8 -4.26,-30.99 -0.48,-74.62 -0.19,-103.7 0.37,-37.04 1.24,-68.06 3.26,-102.15 1.95,-32.78 0.89,-69.74 1.57,-102.92 0.79,-38.47 8.2,-74.79 -18.37,-107.16l-667.68 -660.42c-29.6,-26.7 -49.9,-51.82 -76.91,-76.41l-440.82 -438.28c-49.63,-51.53 -104.28,-95.42 -149.67,-145.5 -67.05,-73.99 -82.46,-73.17 -181.67,-73.81l-850.56 -17.83c-78.65,-1.47 -135.65,-4.02 -209.53,34.58 -77.17,40.3 -121.22,85.69 -149.92,148.27 -54.74,119.38 -21.83,465.35 -15.56,636.93 1.48,40.71 -0.61,61.41 1.34,104.22l11.48 330.76c5.5,130.45 17.79,109.35 93.99,191.46l365 359.41c34.56,32.12 18.89,23.59 102.18,19.8l1091.11 -40.24 -232.96 -257.35c-24.06,-26.28 -693.18,-755.27 -711.53,-793.4z"/>
      <path class="fil1" d="M11683.25 8708.22l3.68 1.64c-0.24,-0.1 -4.23,-0.42 -3.68,-1.64zm-30.2 1.32l3.69 1.64c-0.25,-0.11 -4.23,-0.41 -3.69,-1.64zm-30.19 1.33l21.06 -2.44 -21.06 2.44zm0 0c-64.38,18.68 -1911.99,61.3 -1966.04,76.99 -6.46,53.05 -12.87,105.18 -25.08,159.03 -28.33,124.94 -54.17,182.34 -112.48,290.23 -19.15,35.45 -58.87,106.09 -91.21,129.5 15.52,32.25 196.55,216.8 248.43,272.41 36.56,39.2 21.37,18.53 153.52,20.82 41.09,0.73 72.92,1.32 110.9,0.27l1290.08 -5.19c77.32,0.52 138.53,-3.15 215.87,-2.78 281.47,1.34 231.84,28.95 392.35,-126.8 28.49,-27.66 45.01,-43.45 74.4,-70.4l385.18 -368.31c127.28,-128.32 358.38,-288.05 194.55,-551.75 -33.58,-54.05 -390.45,-381.25 -449.51,-435.4l-150.5 -143.65c-78.31,-71.17 -167.34,-177.07 -237.78,-180.2l-325.84 0.42c-54.99,-1.1 -283.75,-10.4 -316.93,17.95 -112.09,95.74 -558.89,618.7 -713.85,762.45 -27.34,25.38 -56.27,51 -64.77,82.1l348 16.22c62.7,1.09 115.5,5.96 173.42,9.42 26.99,1.61 57.92,2.76 87.32,3.35 38.45,0.78 52.08,3.69 86.6,4.96l608.3 29.98c43,4.29 53.7,-3.08 85.07,8.38z"/>
      <path class="fil1" d="M6364.43 10907.45l3.67 1.64c-0.23,-0.1 -4.22,-0.41 -3.67,-1.64zm14.43 -15.76l3.69 1.64c-0.25,-0.1 -4.24,-0.41 -3.69,-1.64zm32.29 -22.59l-13.47 16.93 13.47 -16.93zm14.44 -15.75l-14.44 15.75 14.44 -15.75zm0 0c1.06,-2 1.84,-7.26 3.2,-5.97l156.31 -174.45c29.66,-32.64 58.01,-56.9 85.91,-87.46 27.59,-30.25 52.13,-56.83 81.85,-89.28 112.99,-123.38 222.9,-237.12 336.04,-360.65 111.54,-121.78 219.97,-233.58 331.43,-355.3l340.22 -358.78c-113.79,-168.33 -204.83,-250.22 -245.88,-502.02 -5.6,-34.38 -5.15,-46.95 -18.7,-82.36 -84.54,11.62 -363.69,-34.99 -414.26,14.51l-145.63 149.98c-48.43,43.91 -95.48,101.26 -147.78,148.66 -45.22,40.99 -96.13,99.93 -140.46,144.52l-514.85 517.65c-25.68,28.44 -46.12,43.8 -71.72,71.59 -68.44,74.3 -334.66,326.31 -358.17,372.97 -23.1,45.84 -23.75,640.54 -25.33,736.19 -1.24,74.84 -3.09,136.81 -4.48,212.62 -3,162.64 6.23,269.46 178.68,368.78 20.94,12.05 63.87,23.09 90.82,28.65 54.4,11.23 652.45,-11.58 754.69,-16.08 76.18,-3.35 138.46,-3.04 217.51,-6.45 133.57,-5.76 136.29,-20.18 266.27,-160.53l291.39 -291.76c38.74,-41.77 24.75,-42.48 23.97,-100.32 -0.34,-25.75 -29.01,-1052.44 -40.23,-1091.1 -32.2,15.49 -104.81,86.86 -131.22,111.64l-187.49 167.93c-23.27,21.06 -44.37,42.72 -64.26,60.13 -85.43,74.72 -605.56,556.34 -647.83,576.69z"/>
      <path class="fil1" d="M10750.23 6537.65l-14.43 15.76 14.43 -15.76zm0 0l13.48 -16.93 -13.48 16.93zm19.95 -28.1l3.69 1.64c-0.25,-0.1 -4.23,-0.41 -3.69,-1.64zm-34.38 43.86c-16.86,31.62 -299.98,327.47 -332.03,362.43l-839.96 897.97c-58.2,63.56 -113.93,121.46 -168.47,183.82 26.2,38.77 58.53,79.57 87,120.11l111.42 212.16c13.38,45.23 57.26,204.6 53.81,246.6 29.5,3.59 65.65,2.98 94.79,3.19 36.75,0.27 66.14,2.64 102.13,3.32 31.61,0.6 61.12,-0.41 95.75,1.03 33.88,1.4 71.26,1.83 101.18,5.48 20.75,-23.73 45.15,-42.88 66.67,-66.45l138.3 -138.08c27.56,-28.91 40.67,-42.45 71.18,-71.84l1107.14 -1119.14c52.13,-62.22 39.53,-301.57 40.4,-389.02l5.98 -293.37c1.61,-114.71 26.53,-432.75 -20.33,-513.98 -42.5,-73.69 -104.72,-141.98 -171.58,-164.02 -128.59,-42.41 -411.41,-20.07 -556.54,-13.29 -106.23,4.96 -571.27,8.29 -608.96,32.88l-419.97 419.99c-29.88,31.91 -44.13,32.88 -42.98,77.02l32.16 924.68c2.74,61.88 12.23,155.06 7.68,210.65l388.75 -344.51c42.82,-37.45 86.21,-81.02 131.12,-119.08l125.77 -114.08c50.6,-47.36 367.48,-339.02 399.59,-354.47z"/>
      <path class="fil1" d="M8578.6 5649.53l-2.43 -21.06 2.43 21.06zm-148.17 -874.52l55.72 -21.32c87.03,-24.91 184.42,-17.16 245.56,22.43 101.15,65.48 376.44,376.41 486.36,485.44 41.17,40.83 79.45,87.09 120.57,127.8 181.16,179.33 176.77,158.05 180.32,287.75l1.8 444.86c-2.05,305.83 10.35,670.01 5.47,971.97l1.24 355.8c-0.73,108.28 15.77,116.82 -29.55,164.43l-251.22 235.69c-27.42,-7.49 -43.38,-25.58 -70.04,-42.06l-210.28 -109.22c-19.78,-8.7 -19.99,-8.2 -38.48,-13.27 -43.56,-11.95 -57.28,-23.64 -118.36,-33.27l-159.46 -24.12c2.97,-36.2 -2.16,-85.24 -4.06,-127.64l-36.38 -1111.58c-3.22,-88.06 -8.08,-161.24 -11.29,-249.29l-7.6 -247.61c-2.44,-55.72 -0.53,-202.22 -12.15,-242.27l-61.07 1134.7c-1.05,52.43 -18.08,227.62 -7.83,262.93l-17.85 6.84c-34,-50.3 -370.92,-349.02 -427.11,-402.66l-421.73 -398.16c6.61,-54.27 -0.66,-117 0.57,-177.37l0.64 -177.33c-11.77,-321.78 -21.17,-287.59 86.61,-405.4l649.66 -686.88c15.28,-12.04 32.09,-22.42 49.94,-31.19zm143.44 835.41c0.54,-1.22 3.19,0.39 3.67,1.64l-3.67 -1.64zm-1.33 -30.19l3.68 1.63c-0.24,-0.1 -4.23,-0.41 -3.68,-1.63z"/>
      <path class="fil1" d="M8841.24 9437.68c389.85,-149.2 610.76,-596.74 465.49,-976.34 -122.47,-320.01 -351.75,-488.71 -677.27,-522.01 -283.29,-28.97 -535.83,116.34 -698.59,344.41 -18.76,26.27 -18.76,32.76 -34.91,58.43 -16.43,26.14 -20.64,31.84 -32.12,59.67 -11.49,27.84 -9.35,36.41 -21.02,64.63 -45.4,109.83 -53.1,323.37 -14.32,437.66 33.26,98.07 -2.63,38.69 43.3,118.75 58.1,101.27 23.82,89.2 156.07,230.79 191.35,204.83 549.71,284.91 813.37,184.01z"/>
      <path class="fil1" d="M8568.7 11762.44l2.43 21.07 -2.43 -21.07zm148.17 874.52l-55.72 21.32c-87.03,24.91 -184.42,17.16 -245.56,-22.42 -101.15,-65.48 -376.44,-376.41 -486.36,-485.44 -41.17,-40.84 -79.45,-87.09 -120.57,-127.8 -181.16,-179.33 -176.77,-158.06 -180.32,-287.75l-1.8 -444.87c2.05,-305.82 -10.35,-670.01 -5.47,-971.96l-1.24 -355.81c0.73,-108.27 -15.77,-116.81 29.55,-164.43l251.22 -235.68c27.42,7.49 43.38,25.58 70.04,42.05l210.28 109.23c19.78,8.7 19.99,8.19 38.48,13.26 43.56,11.95 57.28,23.65 118.36,33.27l159.46 24.13c-2.97,36.2 2.16,85.24 4.06,127.63l36.38 1111.59c3.22,88.05 8.08,161.24 11.29,249.28l7.6 247.61c2.44,55.72 0.53,202.23 12.15,242.27l61.06 -1134.7c1.06,-52.42 18.08,-227.62 7.83,-262.93l17.86 -6.84c34,50.3 370.92,349.03 427.11,402.66l421.73 398.16c-6.61,54.27 0.66,117 -0.57,177.37l-0.64 177.33c11.77,321.79 21.16,287.6 -86.61,405.4l-649.66 686.89c-15.28,12.03 -32.09,22.42 -49.94,31.18zm-143.44 -835.41c-0.54,1.23 -3.19,-0.38 -3.67,-1.64l3.67 1.64zm1.33 30.2l-3.68 -1.64c0.24,0.1 4.23,0.41 3.68,1.64z"/>
     </g>
     <g>
      <path class="fil1" d="M2340.42 8676.4c104.66,-8.74 692.95,-232.66 820.51,-283.73 266.06,-106.55 538.47,-203.29 779.31,-324.81 380.29,-191.78 1216.9,-504.32 1216.9,-1013.8 0,-513.5 -452.68,-1712.41 -690.62,-2193.71l-210.71 -465.26c-77.68,56.86 -45.1,92.14 -45.1,337.89 0.82,2039.23 -53.21,2092.51 -1492.84,3532.26l-287.32 298.51c-34.47,47.3 -58.37,65.35 -90.13,112.65z"/>
      <path class="fil1" d="M11962.38 6963.93c0,338.83 183.48,485.83 490.87,680.81l553.19 303.17c76.11,38.37 127.75,52.46 203.16,89.76 131.52,64.97 253.8,113.91 390.54,172.78 70.19,30.19 124.54,45.54 194.67,75.67l610.12 246.12c102.84,40.32 342.86,135.92 441.8,144.16 -67.62,-100.88 -116.93,-107.99 -197.69,-185.29 -1716.95,-1647.89 -1740.22,-1728.4 -1740.22,-4096.02 -88.69,64.84 -238.64,456.64 -300.53,578.22 -241.84,475.26 -645.91,1553.85 -645.91,1990.62z"/>
      <path class="fil1" d="M12908.82 12980.36c0,-2483.43 -7.17,-2461.73 1841.73,-4152.13 50.95,-50.95 77.49,-88.12 96.18,-106.8 -315.88,73.65 -1195.27,407.65 -1484.35,521.3 -354.43,139.32 -534.38,247.7 -836.68,402.62 -134.35,69 -346.25,219.39 -432.99,333.17 -283.36,371.61 154.29,1501.71 333.68,1952 53.52,134.35 96.3,240.58 147.43,370.78l222.1 521.5c91.01,202.47 58.49,137.81 112.9,157.56z"/>
      <path class="fil1" d="M12870.64 4363.64c-81.7,-9.25 -105.73,-11.14 -232.28,-13.72 -2344.93,0 -2047.54,-5.91 -3734.99,-1470.25 -71.26,-71.89 -236.12,-264.68 -321.09,-287.26 13.9,59.82 29.75,109.63 54.03,171.27 26.98,68.5 39.81,108.94 67.55,180.27 48.75,125.17 89,229.83 139.57,356.13l294.37 697.23c149.07,302.36 313.48,680.38 521.87,942.85l110.89 137c406.95,455.38 1584.66,-61.96 2056.59,-254.05l864.17 -375.13c68.05,-33.71 108.12,-59.06 179.32,-84.34z"/>
      <path class="fil1" d="M8604.87 14805.49c1812.42,-1833.75 1630.71,-1780.16 4258.86,-1780.16 -38.56,-52.52 -232.6,-132.84 -308.2,-164.98 -126.74,-53.78 -230.15,-101.27 -348.4,-147.37 -120.7,-46.99 -224.92,-94.54 -350.41,-145.3 -127.11,-51.45 -234.29,-83.59 -360.59,-135.17 -271.91,-111.27 -1274.45,-432.05 -1600.21,-279.27 -264.8,124.23 -494.19,580.74 -622.94,841.71 -131.27,266.19 -324.75,791.01 -429.22,1058.08 -51.71,132.21 -236.06,625.46 -238.89,752.46z"/>
      <path class="fil1" d="M4278.32 4349.92c62.97,54.73 355.38,177.19 441.8,211.85 62.34,25.03 90.64,47.17 153.04,72.2 656.91,263.74 1415.03,617.35 2131.82,617.35 423.87,0 787.93,-800.63 946.18,-1149.47 52.02,-114.54 113.66,-235.36 161.02,-357.14l292.61 -744.02c39.75,-107.75 129.38,-270.78 132.46,-408.28 -99.44,66.42 -279.14,267.76 -377.45,366.07 -1553.03,1552.53 -1762.55,1391.44 -3881.48,1391.44z"/>
      <path class="fil1" d="M4210.71 12957.84c72.21,-26.1 89.57,-111.39 157.75,-247.95l402.74 -859.19c199.32,-507.15 385.94,-927.25 385.94,-1484.22 0,-329.53 -571.81,-658.99 -863.78,-803.72 -133.1,-65.92 -249.15,-124.35 -375.51,-187.81 -117.3,-58.81 -241.91,-113.16 -374.18,-166.62 -63.59,-25.73 -131.59,-54.91 -189.26,-81.2l-1013.99 -405.7c23.21,86.74 20.69,46.29 174.29,186.31 47.17,43.14 54.72,35.22 102.15,78.18 1799.46,1647.38 1593.85,1648.63 1593.85,3971.92z"/>
      <path class="fil1" d="M4278.32 13002.88c2604.7,0 2488.52,-80.45 4258.93,1825.19 -11.57,-138.57 -421.36,-1134.06 -532.94,-1359.93 -178.44,-360.92 -566.97,-1366.6 -1089.47,-1366.6 -285.68,0 -527.97,71.95 -747.99,130.95 -319.52,85.61 -955.3,330.28 -1279.98,477.47 -123.47,55.98 -545.71,207.18 -608.55,292.92z"/>
      <path class="fil1" d="M3129.14 5872.31c266.86,0 483.18,216.32 483.18,483.17 0,266.86 -216.32,483.2 -483.18,483.2 -266.85,0 -483.19,-216.34 -483.19,-483.2 0,-266.85 216.34,-483.17 483.19,-483.17z"/>
      <path class="fil1" d="M3129.14 10490.06c266.86,0 483.18,216.33 483.18,483.2 0,266.85 -216.32,483.17 -483.18,483.17 -266.85,0 -483.19,-216.32 -483.19,-483.17 0,-266.87 216.34,-483.2 483.19,-483.2z"/>
      <path class="fil1" d="M6229.73 13680.48c266.85,0 483.18,216.33 483.18,483.18 0,266.85 -216.33,483.17 -483.18,483.17 -266.87,0 -483.19,-216.32 -483.19,-483.17 0,-266.85 216.32,-483.18 483.19,-483.18z"/>
      <path class="fil1" d="M10895 13682.09c266.85,0 483.18,216.33 483.18,483.2 0,266.85 -216.33,483.17 -483.18,483.17 -266.85,0 -483.17,-216.32 -483.17,-483.17 0,-266.87 216.32,-483.2 483.17,-483.2z"/>
      <path class="fil1" d="M14136.84 10491.71c266.85,0 483.18,216.34 483.18,483.19 0,266.86 -216.33,483.18 -483.18,483.18 -266.85,0 -483.18,-216.32 -483.18,-483.18 0,-266.85 216.33,-483.19 483.18,-483.19z"/>
      <path class="fil1" d="M14139.77 5849.46c266.85,0 483.18,216.32 483.18,483.18 0,266.85 -216.33,483.17 -483.18,483.17 -266.85,0 -483.18,-216.32 -483.18,-483.17 0,-266.86 216.33,-483.18 483.18,-483.18z"/>
      <path class="fil1" d="M10891.49 2813.46c266.85,0 483.17,216.32 483.17,483.17 0,266.85 -216.32,483.18 -483.17,483.18 -266.85,0 -483.18,-216.33 -483.18,-483.18 0,-266.85 216.33,-483.17 483.18,-483.17z"/>
      <path class="fil1" d="M6306.43 2817.67c266.86,0 483.18,216.33 483.18,483.18 0,266.85 -216.32,483.19 -483.18,483.19 -266.85,0 -483.17,-216.34 -483.17,-483.19 0,-266.85 216.32,-483.18 483.17,-483.18z"/>
     </g>
    </g>
   </g>
  </g>
 </g>
</svg>
